# Blender v2.76 (sub 0) OBJ File: ''
# www.blender.org
mtllib cube.mtl
o Cube
v 0.0100000 -0.0100000 -0.0100000
v 0.0100000 -0.0100000 0.0100000
v -0.0100000 -0.0100000 0.0100000
v -0.0100000 -0.0100000 -0.0100000
v 0.0100000 0.0100000 -0.00999999
v 0.00999999 0.0100000 0.0100001
v -0.0100000 0.0100000 0.0100000
v -0.0100000 0.0100000 -0.0100000
vt 0.0100000 0.00333333
vt 0.0100000 0.00666667
vt 0.00666667 0.00666667
vt 0.00666667 0.00333333
vt 0.00666667 0.000000
vt 0.000000 0.00333333
vt 0.000000 0.000000
vt 0.00333333 0.000000
vt 0.00333333 0.0100000
vt 0.000000 0.0100000
vt 0.000000 0.00666667
vt 0.00333333 0.00333333
vt 0.00333333 0.00666667
vt 0.0100000 0.000000
vn 0.000000 -0.0100000 0.000000
vn 0.000000 0.0100000 0.000000
vn 0.0100000 0.000000 0.000000
vn -0.000000 0.000000 0.0100000
vn -0.0100000 -0.000000 -0.000000
vn 0.000000 0.000000 -0.0100000
usemtl Material
s off
f 2/1/1 3/2/1 4/3/1
f 8/1/2 7/4/2 6/5/2
f 5/6/3 6/7/3 2/8/3
f 6/8/4 7/5/4 3/4/4
f 3/9/5 7/10/5 8/11/5
f 1/12/6 4/13/6 8/11/6
f 1/4/1 2/1/1 4/3/1
f 5/14/2 8/1/2 6/5/2
f 1/12/3 5/6/3 2/8/3
f 2/12/4 6/8/4 3/4/4
f 4/13/5 3/9/5 8/11/5
f 5/6/6 1/12/6 8/11/6
